<svg width="14" height="16" viewBox="0 0 14 16" fill="none" xmlns="http://www.w3.org/2000/svg">
<path d="M3.65462 3.42745C4.21796 3.68004 4.44459 4.27723 4.51587 4.52226C4.55046 4.64116 4.6569 4.72107 4.78068 4.72107C4.90446 4.72107 5.01087 4.64116 5.04549 4.52223C5.11677 4.27719 5.34337 3.68001 5.90677 3.42741C6.00602 3.38291 6.07018 3.28401 6.07018 3.17548C6.07018 3.06695 6.00605 2.96804 5.90677 2.92351C5.3434 2.67091 5.1168 2.07373 5.04549 1.8287C5.0109 1.70979 4.90446 1.62988 4.78068 1.62988C4.6569 1.62988 4.55046 1.70979 4.51587 1.8287C4.44459 2.07373 4.21799 2.67091 3.65465 2.92351C3.55537 2.96801 3.49121 3.06691 3.49121 3.17548C3.49121 3.28404 3.55537 3.38295 3.65462 3.42745ZM4.78068 2.42148C4.91071 2.67441 5.11084 2.95988 5.41118 3.17548C5.11084 3.39107 4.91074 3.67654 4.78068 3.92948C4.65065 3.67654 4.45055 3.39107 4.15018 3.17548C4.45052 2.95988 4.65065 2.67441 4.78068 2.42148Z" fill="#BEAD8E"/>
<path d="M3.2278 4.75308C3.33293 4.70595 3.40083 4.6013 3.40083 4.48645C3.40083 4.37161 3.3329 4.26692 3.2278 4.21983C2.41502 3.85542 2.09002 3.00052 1.98802 2.64983C1.95143 2.52398 1.83883 2.43945 1.70786 2.43945C1.57689 2.43945 1.4643 2.52402 1.42771 2.64983C1.32571 3.00048 1.00071 3.85539 0.187924 4.21983C0.0827989 4.26695 0.0148926 4.37161 0.0148926 4.48645C0.0148926 4.6013 0.0828301 4.70598 0.187924 4.75308C1.00071 5.11752 1.32571 5.97242 1.42774 6.32308C1.46433 6.44889 1.57693 6.53342 1.70789 6.53342C1.83883 6.53342 1.95143 6.44889 1.98805 6.32305C2.09002 5.97242 2.41505 5.11752 3.2278 4.75308ZM1.70786 5.7347C1.52677 5.33198 1.20936 4.82586 0.676831 4.48642C1.20936 4.14702 1.5268 3.64089 1.70789 3.23817C1.88899 3.64089 2.20643 4.14702 2.73893 4.48642C2.2064 4.82586 1.88896 5.33198 1.70786 5.7347Z" fill="#BEAD8E"/>
<path d="M13.9838 15.4566L13.9348 14.7707C13.9346 14.7685 13.9345 14.7663 13.9342 14.7641C13.8247 13.6689 13.6198 12.5615 13.6104 12.5108C13.4629 11.4763 12.8207 11.0019 12.3071 10.7861C12.1934 10.7383 12.0814 10.7011 11.975 10.6721V4.39122C11.975 4.262 11.8703 4.15722 11.741 4.15722C11.6118 4.15722 11.507 4.26197 11.507 4.39122V10.5844C11.3661 10.5696 11.2687 10.5699 11.2416 10.5703C11.2146 10.5699 11.1171 10.5697 10.9761 10.5845V2.60206H11.507V3.28575C11.507 3.41497 11.6118 3.51975 11.741 3.51975C11.8702 3.51975 11.975 3.415 11.975 3.28575V0.733469C11.975 0.329031 11.646 0 11.2416 0C10.8371 0 10.5081 0.329031 10.5081 0.733469V10.6721C10.4017 10.7011 10.2897 10.7383 10.1761 10.7861C10.055 10.8369 9.9269 10.9024 9.79977 10.986L9.88343 9.41859C10.0846 9.3645 10.2334 9.18103 10.2334 8.963V8.31763C10.2334 8.05722 10.0215 7.84538 9.76112 7.84538H9.67552C9.71393 7.74447 9.73446 7.63613 9.73446 7.52481C9.73446 7.02806 9.33033 6.62397 8.83362 6.62397C8.72327 6.62397 8.61624 6.6435 8.51587 6.68141C8.31087 6.38597 7.96868 6.20003 7.60008 6.20003C7.47896 6.20003 7.35902 6.22006 7.2453 6.25838C7.09346 5.62372 6.5214 5.15053 5.84087 5.15053C5.16033 5.15053 4.58824 5.62369 4.4364 6.25838C4.32268 6.22006 4.20274 6.20003 4.08162 6.20003C3.46802 6.20003 2.9688 6.69922 2.9688 7.31281C2.9688 7.50128 3.0158 7.68388 3.10021 7.84538H2.94215C2.68174 7.84538 2.4699 8.05722 2.4699 8.31759V8.963C2.4699 9.18103 2.61862 9.3645 2.8198 9.41859L2.92612 11.4106L2.23462 12.1021C2.10712 12.2296 2.03687 12.3991 2.03687 12.5795C2.03687 12.7598 2.10708 12.9293 2.23462 13.0568C2.36624 13.1884 2.53912 13.2542 2.71199 13.2542C2.81805 13.2542 2.92402 13.2292 3.02055 13.1797L3.11108 14.8761C3.14474 15.5063 3.66546 16 4.29655 16H8.40677C8.53408 16 8.65677 15.9796 8.77202 15.9423C8.84358 15.9794 8.92346 16 9.00533 16H13.4778C13.6181 16 13.7535 15.9411 13.8491 15.8384C13.9446 15.7357 13.9938 15.5966 13.9838 15.4566ZM10.9761 0.733469C10.9761 0.587094 11.0952 0.468 11.2416 0.468C11.3879 0.468 11.507 0.587094 11.507 0.733469V2.13409H10.9761V0.733469ZM11.2351 11.0383C11.2392 11.0384 11.2438 11.0384 11.2479 11.0383C11.3123 11.0368 12.7407 11.0174 13.0941 12.3174H9.72874L9.7658 11.6228C10.3186 11.0262 11.1838 11.037 11.2351 11.0383ZM4.08165 6.66803C4.23002 6.66803 4.36955 6.71716 4.48515 6.81009C4.55627 6.86728 4.65408 6.87788 4.73577 6.83738C4.81749 6.79684 4.86821 6.7125 4.86568 6.62131L4.86533 6.60988C4.86515 6.60475 4.86493 6.59966 4.86493 6.5945C4.86493 6.05638 5.30274 5.61856 5.8409 5.61856C6.37905 5.61856 6.81683 6.05638 6.81683 6.5945C6.81683 6.59966 6.81662 6.60478 6.81643 6.60988L6.81608 6.62131C6.81358 6.7125 6.86427 6.79681 6.94599 6.83738C7.02771 6.87791 7.12555 6.86728 7.19662 6.81009C7.31221 6.71716 7.45171 6.66803 7.60012 6.66803C7.86612 6.66803 8.1084 6.83512 8.20293 7.08384C8.2294 7.15344 8.2874 7.20628 8.35915 7.22619C8.4309 7.24609 8.5078 7.23063 8.56637 7.18456C8.6433 7.124 8.73574 7.092 8.83365 7.092C9.0723 7.092 9.26649 7.28619 9.26649 7.52488C9.26649 7.64806 9.21437 7.76391 9.12455 7.84544H3.69624C3.53702 7.724 3.43683 7.52134 3.43683 7.31287C3.4368 6.95728 3.72608 6.66803 4.08165 6.66803ZM2.93793 8.31759C2.93793 8.31525 2.93983 8.31334 2.94218 8.31334H9.76115C9.76349 8.31334 9.7654 8.31525 9.7654 8.31759V8.96297C9.7654 8.96531 9.76349 8.96722 9.76115 8.96722H7.81249C7.5019 8.96722 7.2269 9.15203 7.1119 9.43803C6.98643 9.75019 6.68802 9.95184 6.35165 9.95184C6.33312 9.95184 6.3148 9.95088 6.29655 9.94963L6.73493 9.51125C6.86243 9.38375 6.93268 9.21422 6.93268 9.03388C6.93268 8.85353 6.86246 8.684 6.73493 8.5565C6.47171 8.29328 6.04343 8.29328 5.78021 8.5565L5.26912 9.06759C5.15693 9.00319 5.02743 8.96719 4.89083 8.96719H2.94218C2.93983 8.96719 2.93793 8.96528 2.93793 8.96294V8.31759ZM4.9008 9.43594L3.37105 10.9657L3.28937 9.43522H4.8908C4.89424 9.43522 4.89746 9.43584 4.9008 9.43594ZM8.40677 15.532H4.29655C3.91424 15.532 3.5988 15.2329 3.57843 14.8512L3.4678 12.7784L4.47499 11.7712C4.56637 11.6799 4.56637 11.5317 4.47499 11.4403C4.38362 11.349 4.23546 11.349 4.14408 11.4403L2.85849 12.7259C2.77774 12.8067 2.64633 12.8067 2.56558 12.7259C2.48483 12.6452 2.48483 12.5138 2.56558 12.433L6.11112 8.8875C6.19187 8.80672 6.32324 8.80672 6.40402 8.8875C6.48477 8.96825 6.48477 9.09966 6.40402 9.18041L4.93462 10.6498C4.84324 10.7412 4.84324 10.8893 4.93462 10.9807C5.02599 11.0721 5.17415 11.0721 5.26552 10.9807L5.90555 10.3407C6.04549 10.3921 6.1959 10.4199 6.35165 10.4199C6.88012 10.4199 7.34899 10.103 7.54612 9.61263C7.58943 9.50488 7.69399 9.43525 7.81246 9.43525H9.4139L9.1249 14.8512C9.10452 15.233 8.78908 15.532 8.40677 15.532ZM13.5066 15.5195C13.5012 15.5252 13.4919 15.532 13.4778 15.532H12.7468C12.6747 14.519 12.4808 13.7664 12.472 13.7327C12.4394 13.6077 12.3117 13.5328 12.1865 13.5654C12.0615 13.598 11.9866 13.7258 12.0192 13.8508C12.0212 13.8586 12.2061 14.5764 12.2775 15.532H11.4756V13.7918C11.4756 13.6626 11.3708 13.5578 11.2416 13.5578C11.1123 13.5578 11.0076 13.6625 11.0076 13.7918V15.532H10.2056C10.2768 14.5813 10.4609 13.8626 10.4639 13.8509C10.4966 13.7258 10.4216 13.598 10.2966 13.5654C10.1716 13.5327 10.0437 13.6077 10.0111 13.7327C10.0023 13.7665 9.8084 14.5191 9.73633 15.532H9.35099C9.49093 15.3486 9.57902 15.1229 9.59218 14.8762L9.70374 12.7855H13.1841C13.2478 13.1499 13.3856 13.9822 13.4682 14.8074L13.517 15.4899C13.518 15.504 13.5119 15.5138 13.5066 15.5195Z" fill="#BEAD8E"/>
</svg>
